<?xml version="1.0" encoding="UTF-8" standalone="no"?>
<svg
   xmlns:dc="http://purl.org/dc/elements/1.1/"
   xmlns:cc="http://creativecommons.org/ns#"
   xmlns:rdf="http://www.w3.org/1999/02/22-rdf-syntax-ns#"
   xmlns:svg="http://www.w3.org/2000/svg"
   xmlns="http://www.w3.org/2000/svg"
   xmlns:xlink="http://www.w3.org/1999/xlink"
   id="svg1173"
   version="1.1"
   viewBox="0 0 272.12948 156.81942"
   height="592.70081"
   width="1028.5197">
  <defs
     id="defs1167">
    <circle
       r="101.28978"
       cy="-393.94046"
       cx="-246.66736"
       id="path1028"
       style="opacity:1;fill:none;fill-opacity:1;stroke:none;stroke-width:0.2802484;stroke-linecap:round;stroke-linejoin:miter;stroke-miterlimit:4;stroke-dasharray:none;stroke-dashoffset:0;stroke-opacity:1;paint-order:markers stroke fill" />
  </defs>
  <metadata
     id="metadata1170">
    <rdf:RDF>
      <cc:Work
         rdf:about="">
        <dc:format>image/svg+xml</dc:format>
        <dc:type
           rdf:resource="http://purl.org/dc/dcmitype/StillImage" />
        <dc:title></dc:title>
      </cc:Work>
    </rdf:RDF>
  </metadata>
  <g
     transform="translate(0,-140.18068)"
     id="layer1">
    <g
       transform="matrix(0.3212786,0,0,0.3212786,320.86954,309.51673)"
       id="g1008"
       style="display:inline">
      <circle
         style="opacity:1;fill:#800080;fill-opacity:1;stroke:#800080;stroke-width:0.32511923;stroke-linecap:round;stroke-linejoin:miter;stroke-miterlimit:4;stroke-dasharray:none;stroke-dashoffset:0;stroke-opacity:1;paint-order:markers stroke fill"
         id="path930"
         cx="-704.66254"
         cy="-343.3118"
         r="52.94799" />
      <text
         xml:space="preserve"
         style="font-style:normal;font-variant:normal;font-weight:bold;font-stretch:normal;font-size:5.22839117px;line-height:1.25;font-family:Alef;-inkscape-font-specification:'Alef Bold';letter-spacing:0px;word-spacing:0px;fill:#000000;fill-opacity:1;stroke:none;stroke-width:0.28009239"
         x="-873.85602"
         y="-297.05951"
         id="text934"
         transform="scale(0.83641867,1.1955735)"><tspan
           id="tspan932"
           x="-873.85602"
           y="-297.05951"
           style="font-style:normal;font-variant:normal;font-weight:bold;font-stretch:normal;font-size:17.92591286px;font-family:'Eras Bold ITC';-inkscape-font-specification:'Eras Bold ITC Bold';fill:#ffffff;stroke-width:0.28009239">Lógica</tspan></text>
      <text
         xml:space="preserve"
         style="font-style:normal;font-variant:normal;font-weight:bold;font-stretch:normal;font-size:5.22839117px;line-height:1.25;font-family:Alef;-inkscape-font-specification:'Alef Bold';letter-spacing:0px;word-spacing:0px;display:inline;fill:#000000;fill-opacity:1;stroke:none;stroke-width:0.28009239"
         x="-894.99139"
         y="-276.31693"
         id="text934-2"
         transform="scale(0.83641867,1.1955735)"><tspan
           id="tspan932-3"
           x="-894.99139"
           y="-276.31693"
           style="font-style:normal;font-variant:normal;font-weight:bold;font-stretch:normal;font-size:17.92591286px;font-family:'Eras Bold ITC';-inkscape-font-specification:'Eras Bold ITC Bold';fill:#ffffff;stroke-width:0.28009239">Matemática</tspan></text>
    </g>
    <g
       transform="matrix(0.5023706,0,0,0.5023706,576.49385,375.93272)"
       id="g1026"
       style="display:inline">
      <circle
         style="opacity:1;fill:#800080;fill-opacity:1;stroke:#800080;stroke-width:0.32511923;stroke-linecap:round;stroke-linejoin:miter;stroke-miterlimit:4;stroke-dasharray:none;stroke-dashoffset:0;stroke-opacity:1;paint-order:markers stroke fill"
         id="path930-6"
         cx="-882.49274"
         cy="-415.05341"
         r="52.94799" />
      <text
         xml:space="preserve"
         style="font-style:normal;font-variant:normal;font-weight:bold;font-stretch:normal;font-size:5.22839117px;line-height:1.25;font-family:Alef;-inkscape-font-specification:'Alef Bold';letter-spacing:0px;word-spacing:0px;fill:#000000;fill-opacity:1;stroke:none;stroke-width:0.28009239"
         x="-1102.2808"
         y="-357.06555"
         id="text934-9"
         transform="scale(0.83641867,1.1955735)"><tspan
           id="tspan932-8"
           x="-1102.2808"
           y="-357.06555"
           style="font-style:normal;font-variant:normal;font-weight:bold;font-stretch:normal;font-size:17.92591286px;font-family:'Eras Bold ITC';-inkscape-font-specification:'Eras Bold ITC Bold';fill:#ffffff;stroke-width:0.28009239">Ciência da</tspan></text>
      <text
         xml:space="preserve"
         style="font-style:normal;font-variant:normal;font-weight:bold;font-stretch:normal;font-size:5.22839117px;line-height:1.25;font-family:Alef;-inkscape-font-specification:'Alef Bold';letter-spacing:0px;word-spacing:0px;display:inline;fill:#000000;fill-opacity:1;stroke:none;stroke-width:0.28009239"
         x="-1112.0288"
         y="-336.32297"
         id="text934-2-2"
         transform="scale(0.83641867,1.1955735)"><tspan
           id="tspan932-3-3"
           x="-1112.0288"
           y="-336.32297"
           style="font-style:normal;font-variant:normal;font-weight:bold;font-stretch:normal;font-size:17.92591286px;font-family:'Eras Bold ITC';-inkscape-font-specification:'Eras Bold ITC Bold';fill:#ffffff;stroke-width:0.28009239">Computação</tspan></text>
    </g>
    <circle
       r="61.366592"
       cy="234.95381"
       cx="209.82347"
       id="circle1148"
       style="display:inline;opacity:1;fill:none;fill-opacity:1;stroke:none;stroke-width:0.16978899;stroke-linecap:round;stroke-linejoin:miter;stroke-miterlimit:4;stroke-dasharray:none;stroke-dashoffset:0;stroke-opacity:1;paint-order:markers stroke fill" />
    <g
       id="g1065"
       style="display:inline"
       transform="matrix(0.60585176,0,0,0.60585176,359.26732,473.62335)">
      <text
         id="text934-9-2"
         style="font-style:normal;font-variant:normal;font-weight:bold;font-stretch:normal;font-size:7.5267849px;line-height:1.25;font-family:Alef;-inkscape-font-specification:'Alef Bold';letter-spacing:0px;word-spacing:0px;display:inline;fill:#000000;fill-opacity:1;stroke:none;stroke-width:0.40322059"
         xml:space="preserve"
         transform="rotate(-115.49037,-256.7717,-387.13665)"><textPath
           xlink:href="#path1028"
           id="textPath1054"><tspan
   id="tspan932-8-8"
   style="font-style:normal;font-variant:normal;font-weight:bold;font-stretch:normal;font-size:25.80611801px;font-family:'Eras Bold ITC';-inkscape-font-specification:'Eras Bold ITC Bold';fill:#800080;stroke-width:0.40322059">Inteligência Artificial</tspan></textPath></text>
      <circle
         style="opacity:0.5;fill:#800080;fill-opacity:1;stroke:none;stroke-width:0.26458332;stroke-linecap:round;stroke-linejoin:miter;stroke-miterlimit:4;stroke-dasharray:none;stroke-dashoffset:0;stroke-opacity:1;paint-order:markers stroke fill"
         id="path1059"
         cx="-266.47321"
         cy="-393.48688"
         r="97.139877" />
    </g>
    <g
       id="g1125"
       style="display:inline"
       transform="matrix(0.60585176,0,0,0.60585176,359.26732,526.33245)">
      <text
         xml:space="preserve"
         style="font-style:normal;font-variant:normal;font-weight:bold;font-stretch:normal;font-size:4.12633657px;line-height:1.25;font-family:Alef;-inkscape-font-specification:'Alef Bold';letter-spacing:0px;word-spacing:0px;display:inline;fill:#800080;fill-opacity:1;stroke:none;stroke-width:0.22105375"
         x="-509.18347"
         y="-314.27115"
         id="text1719"
         transform="matrix(1.007348,0,0,0.99270561,0,-87.000001)"><tspan
           id="tspan1717"
           x="-509.18347"
           y="-314.27115"
           style="font-style:normal;font-variant:normal;font-weight:bold;font-stretch:normal;font-size:21.22116089px;font-family:'Copperplate Gothic Bold';-inkscape-font-specification:'Copperplate Gothic Bold, Bold';fill:#800080;stroke-width:0.22105375">Psicologia</tspan></text>
      <text
         xml:space="preserve"
         style="font-style:normal;font-variant:normal;font-weight:bold;font-stretch:normal;font-size:3.81845546px;line-height:1.25;font-family:Alef;-inkscape-font-specification:'Alef Bold';letter-spacing:0px;word-spacing:0px;display:inline;fill:#800080;fill-opacity:1;stroke:none;stroke-width:0.2045601"
         x="-479.32767"
         y="-399.85684"
         id="text1719-7"
         transform="matrix(1.1848112,0,0,0.84401634,0,-87.000001)"><tspan
           id="tspan1717-6"
           x="-479.32767"
           y="-399.85684"
           style="font-style:italic;font-variant:normal;font-weight:normal;font-stretch:normal;font-size:19.63777161px;font-family:'Book Antiqua';-inkscape-font-specification:'Book Antiqua Italic';fill:#800080;stroke-width:0.2045601">Filosofia</tspan></text>
      <text
         transform="translate(0,-87.000001)"
         xml:space="preserve"
         style="font-style:normal;font-variant:normal;font-weight:bold;font-stretch:normal;font-size:4.0091877px;line-height:1.25;font-family:Alef;-inkscape-font-specification:'Alef Bold';letter-spacing:0px;word-spacing:0px;display:inline;fill:#800080;fill-opacity:1;stroke:none;stroke-width:0.21477792"
         id="text1719-1"
         x="-512.7262"
         y="-360.25107"><tspan
           id="tspan1717-4"
           style="font-style:normal;font-variant:normal;font-weight:normal;font-stretch:normal;font-size:20.61868095px;font-family:'Bauhaus 93';-inkscape-font-specification:'Bauhaus 93, ';fill:#800080;stroke-width:0.21477792">Biologia</tspan></text>
      <text
         transform="translate(0,-87.000001)"
         xml:space="preserve"
         style="font-style:normal;font-variant:normal;font-weight:bold;font-stretch:normal;font-size:4.0091877px;line-height:1.25;font-family:Alef;-inkscape-font-specification:'Alef Bold';letter-spacing:0px;word-spacing:0px;display:inline;fill:#800080;fill-opacity:1;stroke:none;stroke-width:0.21477792"
         id="text1719-1-4"
         x="-593.89325"
         y="-388.8941"><tspan
           id="tspan1717-4-1"
           style="font-style:italic;font-variant:normal;font-weight:normal;font-stretch:normal;font-size:20.61868095px;font-family:'Copperplate Gothic Light';-inkscape-font-specification:'Copperplate Gothic Light, Italic';fill:#800080;stroke-width:0.21477792">Engenharia</tspan></text>
      <text
         xml:space="preserve"
         style="font-style:normal;font-variant:normal;font-weight:bold;font-stretch:normal;font-size:4.97535038px;line-height:1.25;font-family:Alef;-inkscape-font-specification:'Alef Bold';letter-spacing:0px;word-spacing:0px;display:inline;fill:#800080;fill-opacity:1;stroke:none;stroke-width:0.26653662"
         id="text1719-1-0"
         x="-691.4184"
         y="-328.48514"
         transform="matrix(0.78336177,0,0,1.2765494,0,-87.000001)"><tspan
           id="tspan1717-4-7"
           style="font-style:normal;font-variant:normal;font-weight:normal;font-stretch:normal;font-size:25.58751869px;font-family:'Vladimir Script';-inkscape-font-specification:'Vladimir Script';fill:#800080;stroke-width:0.26653662">Linguística</tspan></text>
      <path
         style="fill:none;stroke:#800080;stroke-width:0.26458332px;stroke-linecap:butt;stroke-linejoin:miter;stroke-opacity:1"
         d="m -464.62724,-393.24998 87.407,-2e-5 c 6.37041,-16.41349 2.83054,-31.42864 -16.96169,-45.82962 -7.88395,-5.12473 -16.78346,-8.47794 -26.1276,-14.31583 -4.81365,-3.61384 -8.43502,-6.66133 -7.1343,-10.91409 17.99719,-36.73329 26.39921,-54.47635 42.54943,-74.19205 7.61628,-8.07956 10.21444,1.29733 8.76027,7.18627 -1.70484,7.35619 -13.80221,25.82296 -19.60694,39.41354 -2.82722,6.2693 2.04727,8.44175 4.77194,3.44903 8.09951,-16.022 12.73885,-28.63525 24.94643,-46.25484 4.15005,-5.00702 10.0651,-3.50331 8.36272,4.20498 -0.46847,3.7426 -16.47552,29.08925 -25.18266,45.26266 -2.01118,3.7135 0.15643,6.09272 3.73252,0.5197 7.91458,-12.73379 11.96149,-23.49255 21.73363,-35.52976 4.90908,-6.22597 7.99411,-0.70125 7.65401,2.26788 0.36531,5.07001 -16.54432,28.03235 -22.58407,39.26227 -1.27854,4.58267 1.53279,4.01024 3.40178,1.18117 5.69399,-8.21853 6.53875,-12.4499 14.17411,-21.92264 5.03715,-6.05512 6.7822,2.03811 5.38616,6.99258 -2.48644,7.89293 -12.8485,17.60223 -13.13467,24.00149 -0.28896,4.331 16.16338,4.67738 25.04093,8.69344 5.3095,3.2277 -5.03969,13.26066 -3.96875,19.74925 3.72574,13.80962 4.54874,29.34983 2.55133,34.67933 -6.53782,11.97295 -11.91535,7.72882 -16.81994,2.26785 -3.09937,-5.34845 -6.45915,-13.12848 -6.42559,-29.48213 -0.51167,-14.80696 -21.73212,-12.23531 -34.20685,-14.74107 -6.51963,-1.18293 -9.73288,-4.63023 -9.73288,-4.63023 -10.52023,-10.14235 -21.19689,-23.30852 -22.58408,-28.2537 -1.27592,-5.20519 2.73851,-12.86786 13.04017,-8.40999 2.29606,1.13808 8.60309,3.20886 16.44197,15.9695 6.66359,9.03818 7.86401,9.69614 15.11905,10.58334 21.72956,1.51597 39.98077,6.13231 57.83035,11.33927 13.34183,3.43613 15.09978,-6.96785 11.36221,-10.33504 l -30.1269,-25.33064 67.76077,-83.76922 54.17439,40.18372 c -4.23298,3.65051 -7.25023,10.04633 -6.40856,14.33378 1.1239,2.86929 3.9337,5.24508 6.99256,6.04762 2.22013,0.3335 2.70763,-0.69239 2.2564,-2.49598 -2.41429,-0.97169 -5.31497,-0.91652 -6.22515,-5.06355 -0.58634,-2.14646 2.36277,-9.3217 6.81504,-11.62277 4.24497,-1.65027 7.15724,-0.46856 10.0049,0.85045 2.36905,1.44846 9.86329,6.33788 10.67783,15.78051 -0.10156,3.87641 -5.45197,5.83301 -8.2439,4.18541 0.15737,-1.84151 -0.17526,-3.48257 -1.3506,-5.25727 -1.24764,-0.64037 -2.46712,-0.21275 -2.51695,1.65225 2.00893,5.22642 0.62346,7.26846 -2.32321,8.42422 -1.05166,1.35836 -0.0573,3.26224 2.18008,2.35564 1.31684,-0.83083 2.67606,-1.69904 3.61649,-4.09567 0,0 5.45265,2.02025 9.73288,-2.6067 13.73488,7.27156 8.23777,25.67589 1.59493,26.67026 -5.1586,-3.285 -9.80493,-5.70695 -16.75787,-4.29138 -1.50403,-1.49812 -2.88394,-3.04278 -5.7661,-4.0241 -1.17869,-0.2692 -2.92859,1.43215 -0.77865,2.89318 3.86905,2.20036 5.61641,3.88324 4.18576,7.76948 -0.57351,1.72721 2.02523,2.2077 2.71404,1.05263 0.66602,-0.93866 0.94184,-3.15739 0.48394,-4.9387 5.30341,-1.21615 12.67437,1.43468 17.84316,7.39653 2.5386,3.67717 4.7927,9.67121 -0.81131,20.31147 -3.53542,6.42117 -7.74224,11.06042 -13.50889,12.37299 -0.86034,-1.61402 -1.21539,-3.27886 -3.25094,-4.56339 -1.1652,-0.64376 -2.82343,0.7585 -1.67797,2.09131 3.69747,3.77006 3.14188,6.57371 0.90105,8.99216 -0.93091,1.12021 0.36301,2.70264 2.11228,1.90611 1.49891,-1.51225 2.31023,-3.38453 2.30028,-5.59137 3.433,-0.46522 7.09005,-2.51162 10.25597,-6.00373 1.64775,4.77141 -0.0686,10.96225 -3.6748,17.87084 -5.26129,8.33102 -20.80769,14.57538 -28.35903,-3.4e-4 -0.83137,-2.34814 -1.65006,-4.71055 -1.78457,-7.84266 1.98819,-1.76389 3.17142,-3.49437 3.60028,-4.79054 0.93253,-2.56808 -1.85341,-3.2273 -2.51221,-1.35436 -2.2077,4.47299 -4.68581,4.76172 -7.6902,4.04981 -1.4923,-0.29781 -2.3264,1.3684 -1.4356,2.32895 2.08685,1.37644 3.8889,0.95429 5.25827,0.72155 0.15317,11.66572 9.57002,19.39208 18.23833,18.45975 -4.31634,8.34429 -10.74823,15.83864 -19.01148,14.8146 3.49663,-14.5987 -5.89451,-23.08425 -13.17283,-25.81979 0.37887,-4.27362 1.60081,-8.82645 -5.10842,-14.94054 1.07472,-0.94482 2.20269,-2.31563 3.36642,-3.97252 1.20424,-2.59737 -1.38958,-3.86159 -2.63339,-1.74003 -1.83126,3.17467 -4.1523,4.90202 -7.78945,3.62794 -1.53501,-0.47266 -2.53472,1.07574 -1.56923,1.97193 1.63163,1.34601 3.32568,1.45074 5.72303,1.196 6.78353,5.57335 5.85548,10.3923 4.60925,15.18013 15.18257,6.38068 15.64609,17.62739 13.38272,24.63932 -5.4263,11.17754 -12.81696,19.36649 -25.88836,12.96931 1.87454,-2.31397 2.84532,-6.4334 0.43709,-10.11561 -1.22345,-2.16575 -3.74847,-0.46009 -2.54266,1.34585 1.39319,3.09345 2.10557,8.76976 -6.2836,9.40551 -4.77689,0.74576 -9.94793,-1.1799 -14.50132,-4.14922 -4.63056,-3.44688 -8.07509,-8.57777 -8.44911,-15.38534 0.0512,-6.26569 2.04705,-10.64641 5.67439,-10.73891 1.63942,0.11484 3.43828,1.57859 4.76909,3.03479 -1.40386,1.07693 -2.20849,2.29166 -2.94455,3.45763 -0.67132,1.35043 1.25018,3.02505 2.62241,1.2484 1.96641,-2.56653 3.90488,-4.44019 8.24719,-2.75557 1.73127,0.81883 2.6987,-1.04403 1.83976,-2.043 -1.64729,-1.32006 -3.41713,-2.19707 -6.95243,-1.2461 -3.0374,-3.44911 -6.22035,-5.62476 -9.78971,-4.41928 0.32202,-1.20068 1.36198,-3.5428 1.6736,-4.37415 2.01795,-4.39756 4.21545,-4.34773 6.88097,-6.11371 0.70604,-0.52415 0.64233,-0.93834 0.76268,-1.37883 -0.34257,-5.61407 3.85356,-10.80214 6.39889,-13.31933 2.50921,-2.87354 4.12163,-9.14293 7.94127,-11.5435 3.64346,-5.74979 5.0962,-14.98404 6.47521,-17.46924 2.4531,-5.89428 6.71973,-9.55546 11.66191,-12.55793 4.91091,-2.34589 6.96594,0.0649 8.68199,1.52615 1.00226,0.89901 2.65656,0.40192 2.39101,-1.30948 -1.14403,-3.06639 -5.10833,-4.23767 -7.58656,-4.0504 l 6.24842,-12.14248 c 6.64041,-4.77896 10.43841,0.80482 12.94568,5.57515 0.95566,1.37382 2.66443,0.74387 2.64584,-1.03943 -1.45908,-3.78761 -4.38441,-8.66164 -10.18174,-9.28405 -1.65574,-0.11731 -3.18609,-0.0465 -4.46484,0.40161 v 0 c 4.6493,-4.86708 9.51139,-9.74126 6.80357,-14.3631 l -41.38839,-30.89956 -54.42857,65.48438 38.27009,30.80506"
         id="path961" />
    </g>
  </g>
</svg>
